<svg width="1000" height="600" viewBox="0 0 1000 600" xmlns="http://www.w3.org/2000/svg">

<defs>

<linearGradient id="progress" x1="0%" y1="0%" x2="100%" y2="0%">
<stop offset="0%" stop-color="#3FB950"/>
<stop offset="100%" stop-color="#58A6FF"/>
</linearGradient>

<filter id="glow">
<feGaussianBlur stdDeviation="4" result="blur"/>
<feMerge>
<feMergeNode in="blur"/>
<feMergeNode in="SourceGraphic"/>
</feMerge>
</filter>

</defs>

<rect width="1000" height="600" rx="20" fill="#0D1117"/>
<rect x="1" y="1" width="998" height="598" rx="19" stroke="#30363D"/>

<text x="40" y="55"
font-size="32"
font-family="Arial"
font-weight="bold"
fill="#58A6FF">
🚀 DevOps Roadmap
</text>

<text x="40" y="85"
font-size="16"
font-family="Arial"
fill="#8B949E">
My Journey to Becoming a Professional DevOps Engineer
</text>

<!-- Progress -->

<text x="40" y="130"
font-size="18"
fill="#C9D1D9">
Overall Progress
</text>

<rect x="40" y="145"
width="800"
height="22"
rx="11"
fill="#21262D"/>

<rect x="40" y="145"
width="500"
height="22"
rx="11"
fill="url(#progress)"
filter="url(#glow)"/>

<text x="860" y="162"
font-size="18"
fill="#58A6FF">
60%
</text>

<!-- Timeline -->

<line x1="160" y1="220"
x2="160" y2="500"
stroke="#30363D"
stroke-width="5"/>

<!-- Completed -->

<circle cx="160" cy="240" r="18" fill="#3FB950"/>
<text x="210" y="248" fill="#3FB950" font-size="20">✅ Linux Administration</text>

<circle cx="160" cy="300" r="18" fill="#3FB950"/>
<text x="210" y="308" fill="#3FB950" font-size="20">✅ Git & GitHub</text>

<circle cx="160" cy="360" r="18" fill="#3FB950"/>
<text x="210" y="368" fill="#3FB950" font-size="20">✅ Docker</text>

<circle cx="160" cy="420" r="18" fill="#3FB950"/>
<text x="210" y="428" fill="#3FB950" font-size="20">✅ Python Automation</text>

<circle cx="160" cy="480" r="18" fill="#3FB950"/>
<text x="210" y="488" fill="#3FB950" font-size="20">✅ CI/CD Fundamentals</text>

<!-- Current -->

<rect x="620" y="220"
width="280"
height="140"
rx="15"
fill="#161B22"
stroke="#D29922"/>

<text x="650" y="255"
fill="#D29922"
font-size="22"
font-weight="bold">
🔄 Learning Now
</text>

<text x="650" y="295"
fill="#C9D1D9"
font-size="18">
☸ Kubernetes
</text>

<text x="650" y="325"
fill="#C9D1D9"
font-size="18">
🏗 Terraform
</text>

<text x="650" y="355"
fill="#C9D1D9"
font-size="18">
⚙️ Ansible
</text>

<!-- Future -->

<rect x="620" y="390"
width="280"
height="160"
rx="15"
fill="#161B22"
stroke="#58A6FF"/>

<text x="650" y="425"
fill="#58A6FF"
font-size="22"
font-weight="bold">
🎯 Next Goals
</text>

<text x="650" y="460"
fill="#C9D1D9"
font-size="18">
☁ AWS
</text>

<text x="650" y="490"
fill="#C9D1D9"
font-size="18">
📊 Prometheus
</text>

<text x="650" y="520"
fill="#C9D1D9"
font-size="18">
📈 Grafana
</text>

<text x="650" y="550"
fill="#C9D1D9"
font-size="18">
🔍 ELK Stack
</text>

</svg>
